# Blender 3.1.0
# www.blender.org
mtllib BigArrow.mtl
o Cube
v 1.000000 4.919261 -1.000000
v 1.000000 -4.919261 -1.000000
v 1.000000 4.919261 1.000000
v 1.000000 -4.919261 1.000000
v -1.000000 4.919261 -1.000000
v -1.000000 -4.919261 -1.000000
v -1.000000 4.919261 1.000000
v -1.000000 -4.919261 1.000000
v -1.000000 -5.017284 -4.439616
v -1.000000 -5.017284 4.439616
v 1.000000 -5.017284 -4.439616
v 1.000000 -5.017284 4.439616
v -1.000000 -9.023271 -0.250147
v -1.000000 -9.023271 0.250147
v 1.000000 -9.023271 -0.250147
v 1.000000 -9.023271 0.250147
vn -0.0000 4.9193 -0.0000
vn -0.0000 -0.0000 1.0000
vn -1.0000 -0.0000 -0.0000
vn -0.0000 4.9192 -0.0058
vn 1.0000 -0.0000 -0.0000
vn -0.0000 -0.0000 -1.0000
vn -0.0000 4.9192 0.0058
vn -0.0000 -4.9193 -0.0000
vn -0.0000 -4.8289 -0.1908
vn -0.0000 -4.8289 0.1908
vt 0.625000 0.500000
vt 0.375000 0.500000
vt 0.625000 0.750000
vt 0.375000 0.750000
vt 0.875000 0.500000
vt 0.625000 0.250000
vt 0.375000 0.250000
vt 0.875000 0.750000
vt 0.625000 1.000000
vt 0.625000 0.000000
vt 0.375000 1.000000
vt 0.375000 0.000000
vt 0.375000 0.250000
vt 0.375000 0.000000
vt 0.375000 1.000000
vt 0.375000 0.500000
vt 0.375000 0.750000
vt 0.125000 0.500000
vt 0.375000 0.250000
vt 0.375000 0.000000
vt 0.125000 0.750000
vt 0.375000 1.000000
vt 0.375000 0.500000
vt 0.375000 0.750000
s 0
usemtl Material
f 1/1/1 5/5/1 7/8/1 3/3/1
f 4/4/2 3/3/2 7/9/2 8/11/2
f 8/12/3 7/10/3 5/6/3 6/7/3
f 6/7/4 2/2/4 11/16/4 9/13/4
f 2/2/5 1/1/5 3/3/5 4/4/5
f 6/7/6 5/6/6 1/1/6 2/2/6
f 10/14/3 9/13/3 13/19/3 14/20/3
f 4/4/7 8/11/7 10/15/7 12/17/7
f 8/12/3 6/7/3 9/13/3 10/14/3
f 2/2/5 4/4/5 12/17/5 11/16/5
f 13/18/8 15/23/8 16/24/8 14/21/8
f 11/16/5 12/17/5 16/24/5 15/23/5
f 9/13/9 11/16/9 15/23/9 13/19/9
f 12/17/10 10/15/10 14/22/10 16/24/10
