# Blender 3.1.0
# www.blender.org
mtllib book2.mtl
o Cube.004
v -0.092500 -0.035000 0.115000
v -0.092500 0.035000 0.115000
v -0.092500 -0.035000 -0.115000
v -0.092500 0.035000 -0.115000
v 0.092500 -0.035000 0.115000
v 0.092500 0.035000 0.115000
v 0.092500 -0.035000 -0.115000
v 0.092500 0.035000 -0.115000
v -0.092500 -0.035000 0.000000
v -0.088325 0.000000 0.115000
v -0.092500 0.035000 0.000000
v -0.088325 0.000000 -0.115000
v -0.088325 0.000000 0.000000
v -0.092500 -0.035000 0.057500
v -0.089730 0.017500 0.115000
v -0.092500 0.035000 -0.057500
v -0.089730 -0.017500 -0.115000
v -0.092500 -0.035000 -0.057500
v -0.089730 -0.017500 0.115000
v -0.092500 0.035000 0.057500
v -0.089730 0.017500 -0.115000
v -0.088325 0.000000 -0.057500
v -0.088325 0.000000 0.057500
v -0.089730 -0.017500 0.000000
v -0.089730 0.017500 0.000000
v -0.089730 0.017500 0.057500
v -0.089730 -0.017500 0.057500
v -0.089730 -0.017500 -0.057500
v -0.089730 0.017500 -0.057500
v 0.096675 0.000000 -0.115000
v 0.092500 -0.035000 0.000000
v 0.092500 0.035000 0.000000
v 0.096675 0.000000 0.115000
v 0.096675 0.000000 0.000000
v 0.095270 -0.017500 -0.115000
v 0.092500 -0.035000 -0.057500
v 0.092500 0.035000 0.057500
v 0.095270 -0.017500 0.115000
v 0.095270 0.017500 -0.115000
v 0.092500 -0.035000 0.057500
v 0.092500 0.035000 -0.057500
v 0.095270 0.017500 0.115000
v 0.096675 0.000000 0.057500
v 0.096675 0.000000 -0.057500
v 0.095270 -0.017500 0.000000
v 0.095270 0.017500 0.000000
v 0.095270 0.017500 -0.057500
v 0.095270 -0.017500 -0.057500
v 0.095270 -0.017500 0.057500
v 0.095270 0.017500 0.057500
vn -0.0923 -0.0021 -0.0000
vn -0.0000 -0.0000 -0.1150
vn 0.0923 0.0021 -0.0000
vn -0.0000 -0.0000 0.1150
vn -0.0000 -0.0350 -0.0000
vn -0.0000 0.0350 -0.0000
vn -0.0925 0.0011 -0.0000
vn -0.0925 -0.0011 -0.0000
vn -0.0923 0.0021 -0.0000
vn 0.0925 -0.0011 -0.0000
vn 0.0925 0.0011 -0.0000
vn 0.0923 -0.0021 -0.0000
vt 0.843430 0.809865
vt 0.317891 0.006331
vt 0.813788 0.996177
vt 0.979373 0.809865
vt 0.335685 0.007413
vt 0.717479 0.996177
vt 0.846535 0.830695
vt 0.317891 0.997591
vt 0.813788 0.008939
vt 0.717479 0.008939
vt 0.995512 0.830695
vt 0.335685 0.988355
vt 0.843430 0.041022
vt 0.001520 0.006331
vt 0.845273 0.823979
vt 0.991683 0.823979
vt 0.979373 0.041022
vt 0.698677 0.007413
vt 0.846535 0.032501
vt 0.001520 0.997591
vt 0.845273 0.017355
vt 0.995512 0.032501
vt 0.698677 0.988354
vt 0.991683 0.017355
vt 0.317891 0.501961
vt 0.813788 0.502558
vt 0.911401 0.809865
vt 0.765633 0.996177
vt 0.335685 0.497884
vt 0.717479 0.502558
vt 0.921023 0.830695
vt 0.765633 0.008939
vt 0.765633 0.502558
vt 0.317891 0.254146
vt 0.813788 0.749367
vt 0.945387 0.809865
vt 0.741556 0.996177
vt 0.335685 0.743119
vt 0.717479 0.255748
vt 0.883779 0.830695
vt 0.789710 0.008939
vt 0.317891 0.749776
vt 0.813788 0.255748
vt 0.877416 0.809865
vt 0.789710 0.996177
vt 0.335685 0.252649
vt 0.717479 0.749367
vt 0.958268 0.830695
vt 0.741556 0.008939
vt 0.765633 0.255748
vt 0.765633 0.749367
vt 0.789710 0.502558
vt 0.741556 0.502558
vt 0.741556 0.749367
vt 0.789710 0.749367
vt 0.789710 0.255748
vt 0.741556 0.255748
vt 0.921023 0.032501
vt 0.918478 0.017355
vt 0.001520 0.501961
vt 0.845273 0.420667
vt 0.698677 0.497884
vt 0.991683 0.420667
vt 0.911401 0.041022
vt 0.918478 0.823979
vt 0.918478 0.420667
vt 0.883779 0.032501
vt 0.881876 0.017355
vt 0.001520 0.749776
vt 0.845273 0.219011
vt 0.698677 0.252649
vt 0.991683 0.622323
vt 0.877416 0.041022
vt 0.881876 0.823979
vt 0.958268 0.032501
vt 0.955080 0.017355
vt 0.001520 0.254146
vt 0.845273 0.622323
vt 0.698677 0.743119
vt 0.991683 0.219011
vt 0.945387 0.041022
vt 0.955080 0.823979
vt 0.918478 0.622323
vt 0.918478 0.219011
vt 0.881876 0.420667
vt 0.955080 0.420667
vt 0.955080 0.219011
vt 0.881876 0.219011
vt 0.881876 0.622323
vt 0.955080 0.622323
s 0
usemtl Book_2
f 29/57/1 16/39/1 4/10/1 21/49/1
f 3/7/2 17/40/2 12/31/2 21/48/2 4/11/2 8/22/2 39/75/2 30/58/2 35/67/2 7/19/2
f 50/90/3 37/72/3 6/16/3 42/82/3
f 5/13/4 38/73/4 33/64/4 42/81/4 6/17/4 2/4/4 15/36/4 10/27/4 19/44/4 1/1/4
f 3/8/5 7/20/5 36/69/5 31/60/5 40/77/5 5/14/5 1/2/5 14/34/5 9/25/5 18/42/5
f 8/23/6 4/12/6 16/38/6 11/29/6 20/46/6 2/5/6 6/18/6 37/71/6 32/62/6 41/79/6
f 28/56/7 22/50/7 12/32/7 17/41/7
f 27/55/7 23/51/7 13/33/7 24/52/7
f 26/54/1 20/47/1 11/30/1 25/53/1
f 23/51/8 26/54/8 25/53/8 13/33/8
f 10/28/8 15/37/8 26/54/8 23/51/8
f 15/37/1 2/6/1 20/47/1 26/54/1
f 14/35/9 27/55/9 24/52/9 9/26/9
f 1/3/9 19/45/9 27/55/9 14/35/9
f 19/45/7 10/28/7 23/51/7 27/55/7
f 18/43/9 28/56/9 17/41/9 3/9/9
f 9/26/9 24/52/9 28/56/9 18/43/9
f 24/52/7 13/33/7 22/50/7 28/56/7
f 22/50/8 29/57/8 21/49/8 12/32/8
f 13/33/8 25/53/8 29/57/8 22/50/8
f 25/53/1 11/30/1 16/39/1 29/57/1
f 49/89/10 43/83/10 33/65/10 38/74/10
f 48/88/10 44/84/10 34/66/10 45/85/10
f 47/87/3 41/80/3 32/63/3 46/86/3
f 44/84/11 47/87/11 46/86/11 34/66/11
f 30/59/11 39/76/11 47/87/11 44/84/11
f 39/76/3 8/24/3 41/80/3 47/87/3
f 36/70/12 48/88/12 45/85/12 31/61/12
f 7/21/12 35/68/12 48/88/12 36/70/12
f 35/68/10 30/59/10 44/84/10 48/88/10
f 40/78/12 49/89/12 38/74/12 5/15/12
f 31/61/12 45/85/12 49/89/12 40/78/12
f 45/85/10 34/66/10 43/83/10 49/89/10
f 43/83/11 50/90/11 42/82/11 33/65/11
f 34/66/11 46/86/11 50/90/11 43/83/11
f 46/86/3 32/63/3 37/72/3 50/90/3
