# Blender 3.1.0
# www.blender.org
mtllib book1.mtl
o Cube
v 0.075000 0.015000 -0.105000
v 0.075000 -0.015000 -0.105000
v 0.075000 0.015000 0.105000
v 0.075000 -0.015000 0.105000
v -0.075000 0.015000 -0.105000
v -0.075000 -0.015000 -0.105000
v -0.075000 0.015000 0.105000
v -0.075000 -0.015000 0.105000
v 0.069537 0.012487 -0.099618
v 0.069537 -0.012487 -0.099618
v -0.075000 -0.012487 0.105000
v -0.075000 0.012487 0.105000
v 0.069537 0.012487 0.099618
v 0.069537 -0.012487 0.099618
v -0.075000 0.012487 -0.105000
v -0.075000 -0.012487 -0.105000
v -0.070171 -0.015000 -0.105000
v -0.070171 0.015000 0.105000
v -0.070171 -0.015000 0.105000
v -0.070171 0.015000 -0.105000
v -0.070171 -0.012487 -0.099618
v -0.070171 0.012487 -0.099618
v -0.070171 -0.012487 0.099618
v -0.070171 0.012487 0.099618
v -0.076233 0.000000 0.105000
v -0.076233 0.000000 -0.105000
v -0.075000 -0.012487 0.000000
v -0.075000 0.012487 0.000000
v -0.076233 0.000000 0.000000
v -0.076226 0.006243 0.105000
v -0.076226 -0.006243 -0.105000
v -0.075000 -0.012487 -0.052500
v -0.075000 0.012487 -0.052500
v -0.076226 -0.006243 0.105000
v -0.076226 0.006243 -0.105000
v -0.075000 -0.012487 0.052500
v -0.075000 0.012487 0.052500
v -0.076233 0.000000 -0.052500
v -0.076233 0.000000 0.052500
v -0.076226 -0.006243 0.000000
v -0.076226 0.006243 0.000000
v -0.076226 0.006243 0.052500
v -0.076226 -0.006243 0.052500
v -0.076226 -0.006243 -0.052500
v -0.076226 0.006243 -0.052500
vn -0.0000 0.0150 -0.0000
vn 0.0275 -0.0021 0.0966
vn -0.0750 -0.0000 -0.0000
vn -0.0000 -0.0150 -0.0000
vn 0.0688 -0.0060 -0.0000
vn -0.0000 -0.0044 -0.1004
vn -0.0000 0.0044 -0.1004
vn -0.0000 -0.0000 -0.1050
vn 0.0688 0.0060 -0.0000
vn 0.0750 -0.0000 -0.0000
vn -0.0749 0.0006 -0.0000
vn 0.0275 0.0021 0.0966
vn -0.0000 -0.0000 0.1050
vn -0.0000 0.0044 0.1004
vn 0.0275 0.0021 -0.0966
vn 0.0275 -0.0021 -0.0966
vn -0.0000 -0.0044 0.1004
vn -0.0749 -0.0006 -0.0000
vn 0.0417 -0.0000 -0.0873
vn 0.0417 -0.0000 0.0873
vt 0.793443 0.016978
vt 0.784740 0.050696
vt 0.422281 0.988336
vt 0.816161 0.004379
vt 0.768937 0.050696
vt 0.768469 0.075977
vt 0.793443 0.055109
vt 0.422281 0.019833
vt 0.816161 0.999325
vt 0.768469 0.106043
vt 0.779011 0.030548
vt 0.014009 0.285645
vt 0.803290 0.100165
vt 0.784740 0.034893
vt 0.743585 0.100165
vt 0.768937 0.034893
vt 0.453515 0.337588
vt 0.014009 0.400084
vt 0.774959 0.059934
vt 0.803290 0.040460
vt 0.743585 0.040460
vt 0.767184 0.059934
vt 0.453515 0.587588
vt 0.780733 0.016978
vt 0.779472 0.050696
vt 0.997618 0.821941
vt 0.992766 0.003169
vt 0.774204 0.050696
vt 0.821822 0.821941
vt 0.778491 0.075977
vt 0.824213 0.003169
vt 0.763487 0.040460
vt 0.769775 0.059934
vt 0.783388 0.040460
vt 0.772367 0.059934
vt 0.992766 0.813733
vt 0.824124 0.799906
vt 0.780733 0.055109
vt 0.778491 0.106043
vt 0.824213 0.813733
vt 0.995819 0.799906
vt 0.779407 0.030548
vt 0.783388 0.100165
vt 0.779472 0.034893
vt 0.763487 0.100165
vt 0.774204 0.034893
vt 0.436911 0.004379
vt 0.768937 0.035402
vt 0.461563 0.337588
vt 0.010325 0.400084
vt 0.774959 0.059684
vt 0.793443 0.092013
vt 0.006235 0.019833
vt 0.436911 0.999325
vt 0.767184 0.059684
vt 0.779011 0.031696
vt 0.461563 0.587588
vt 0.010325 0.285645
vt 0.784740 0.035402
vt 0.006235 0.988336
vt 0.821822 0.005010
vt 0.774204 0.035402
vt 0.997618 0.005010
vt 0.779472 0.035402
vt 0.995819 0.046271
vt 0.779407 0.031696
vt 0.769775 0.059684
vt 0.824124 0.046271
vt 0.780733 0.092013
vt 0.772367 0.059684
vt 0.500000 1.000000
vt 0.773438 0.040460
vt 0.500000 0.250000
vt 0.773438 0.100165
vt 0.763487 0.070313
vt 0.783388 0.070313
vt 0.773438 0.070313
vt 0.520833 1.000000
vt 0.778413 0.040460
vt 0.771719 0.059934
vt 0.479167 0.250000
vt 0.768462 0.100165
vt 0.775521 0.034893
vt 0.763487 0.085239
vt 0.783388 0.085239
vt 0.479167 1.000000
vt 0.768462 0.040460
vt 0.770423 0.059934
vt 0.520833 0.250000
vt 0.778155 0.034893
vt 0.778413 0.100165
vt 0.763487 0.055386
vt 0.783388 0.055386
vt 0.773438 0.085239
vt 0.773438 0.055386
vt 0.768462 0.070313
vt 0.778413 0.070313
vt 0.778413 0.055386
vt 0.768462 0.055386
vt 0.768462 0.085239
vt 0.778413 0.085239
s 0
usemtl Book1
f 20/58/1 5/12/1 7/18/1 18/50/1
f 24/70/2 18/51/2 7/19/2 12/35/2
f 12/34/3 7/20/3 5/13/3 15/43/3 33/85/3 28/76/3 37/93/3
f 17/47/4 2/4/4 4/9/4 19/54/4
f 9/24/5 1/1/5 3/7/5 13/38/5
f 22/64/6 20/59/6 1/2/6 9/25/6
f 17/48/7 21/62/7 10/28/7 2/5/7
f 21/61/8 22/63/8 9/26/8 10/29/8
f 2/6/9 10/30/9 14/39/9 4/10/9
f 10/31/10 9/27/10 13/36/10 14/40/10
f 8/21/3 11/32/3 36/92/3 27/75/3 32/84/3 16/45/3 6/15/3
f 45/101/11 33/85/11 15/43/11 35/91/11
f 19/55/12 23/67/12 11/33/12 8/22/12
f 34/86/13 30/78/13 25/71/13
f 14/41/13 13/37/13 24/68/13 23/65/13
f 4/11/14 14/42/14 23/66/14 19/56/14
f 31/81/8 26/73/8 35/89/8
f 6/16/15 16/46/15 21/62/15 17/48/15
f 15/44/16 5/14/16 20/59/16 22/64/16
f 6/17/4 17/49/4 19/57/4 8/23/4
f 13/38/17 3/7/17 18/52/17 24/69/17
f 1/3/1 20/60/1 18/53/1 3/8/1
f 44/100/3 38/94/3 26/74/3 31/82/3
f 43/99/3 39/95/3 29/77/3 40/96/3
f 42/98/11 37/93/11 28/76/11 41/97/11
f 39/95/3 42/98/3 41/97/3 29/77/3
f 25/72/3 30/79/3 42/98/3 39/95/3
f 30/79/11 12/34/11 37/93/11 42/98/11
f 36/92/18 43/99/18 40/96/18 27/75/18
f 11/32/18 34/87/18 43/99/18 36/92/18
f 34/87/3 25/72/3 39/95/3 43/99/3
f 32/84/18 44/100/18 31/82/18 16/45/18
f 27/75/18 40/96/18 44/100/18 32/84/18
f 40/96/3 29/77/3 38/94/3 44/100/3
f 16/46/19 31/83/19 35/90/19 15/44/19 22/64/19 21/62/19
f 23/67/20 24/70/20 12/35/20 30/80/20 34/88/20 11/33/20
f 38/94/3 45/101/3 35/91/3 26/74/3
f 29/77/3 41/97/3 45/101/3 38/94/3
f 41/97/11 28/76/11 33/85/11 45/101/11
