# Blender 3.1.0
# www.blender.org
mtllib Glass.mtl
o Guild Meeting room glass wall
v -7.616777 3.000000 -2.856165
v -7.616777 0.000000 -2.856165
v -7.616777 3.000000 -2.681315
v -7.616777 0.000000 -2.681315
v -11.945494 3.000000 -2.856165
v -11.945494 0.000000 -2.856165
v -11.945494 3.000000 -2.681315
v -11.945494 0.000000 -2.681315
vn -0.0000 1.5000 -0.0000
vn -0.0000 -0.0000 0.0874
vn -2.1644 -0.0000 -0.0000
vn -0.0000 -1.5000 -0.0000
vn 2.1644 -0.0000 -0.0000
vn -0.0000 -0.0000 -0.0874
vt 0.625000 0.500000
vt 0.375000 0.500000
vt 0.625000 0.750000
vt 0.375000 0.750000
vt 0.875000 0.500000
vt 0.625000 0.250000
vt 0.125000 0.500000
vt 0.375000 0.250000
vt 0.875000 0.750000
vt 0.625000 1.000000
vt 0.625000 0.000000
vt 0.375000 1.000000
vt 0.375000 0.000000
vt 0.125000 0.750000
s 0
usemtl DarkGlass
f 1/1/1 5/5/1 7/9/1 3/3/1
f 4/4/2 3/3/2 7/10/2 8/12/2
f 8/13/3 7/11/3 5/6/3 6/8/3
f 6/7/4 2/2/4 4/4/4 8/14/4
f 2/2/5 1/1/5 3/3/5 4/4/5
f 6/8/6 5/6/6 1/1/6 2/2/6
o door glass
v 4.969746 2.369494 1.849593
v 4.969746 0.035466 1.849593
v 4.969746 2.369494 1.916273
v 4.969746 0.035466 1.916273
v 4.139520 2.369494 1.849593
v 4.139520 0.035466 1.849593
v 4.139520 2.369494 1.916273
v 4.139520 0.035466 1.916273
vn -0.0000 1.1670 -0.0000
vn -0.0000 -0.0000 0.0333
vn -0.4204 -0.0000 -0.0000
vn -0.0000 -1.1670 -0.0000
vn 0.4204 -0.0000 -0.0000
vn -0.0000 -0.0000 -0.0333
vt 0.625000 0.500000
vt 0.375000 0.500000
vt 0.625000 0.750000
vt 0.375000 0.750000
vt 0.875000 0.500000
vt 0.625000 0.250000
vt 0.125000 0.500000
vt 0.375000 0.250000
vt 0.875000 0.750000
vt 0.625000 1.000000
vt 0.625000 0.000000
vt 0.375000 1.000000
vt 0.375000 0.000000
vt 0.125000 0.750000
s 0
usemtl DarkGlass
f 9/15/7 13/19/7 15/23/7 11/17/7
f 12/18/8 11/17/8 15/24/8 16/26/8
f 16/27/9 15/25/9 13/20/9 14/22/9
f 14/21/10 10/16/10 12/18/10 16/28/10
f 10/16/11 9/15/11 11/17/11 12/18/11
f 14/22/12 13/20/12 9/15/12 10/16/12
o door glass.001
v 7.430086 2.369494 1.849593
v 7.430086 0.035466 1.849593
v 7.430086 2.369494 1.916273
v 7.430086 0.035466 1.916273
v 6.578794 2.369494 1.849593
v 6.578794 0.035466 1.849593
v 6.578794 2.369494 1.916273
v 6.578794 0.035466 1.916273
vn -0.0000 1.1670 -0.0000
vn -0.0000 -0.0000 0.0333
vn -0.4311 -0.0000 -0.0000
vn -0.0000 -1.1670 -0.0000
vn 0.4311 -0.0000 -0.0000
vn -0.0000 -0.0000 -0.0333
vt 0.625000 0.500000
vt 0.375000 0.500000
vt 0.625000 0.750000
vt 0.375000 0.750000
vt 0.875000 0.500000
vt 0.625000 0.250000
vt 0.125000 0.500000
vt 0.375000 0.250000
vt 0.875000 0.750000
vt 0.625000 1.000000
vt 0.625000 0.000000
vt 0.375000 1.000000
vt 0.375000 0.000000
vt 0.125000 0.750000
s 0
usemtl DarkGlass.001
f 17/29/13 21/33/13 23/37/13 19/31/13
f 20/32/14 19/31/14 23/38/14 24/40/14
f 24/41/15 23/39/15 21/34/15 22/36/15
f 22/35/16 18/30/16 20/32/16 24/42/16
f 18/30/17 17/29/17 19/31/17 20/32/17
f 22/36/18 21/34/18 17/29/18 18/30/18
o door glass.002
v -6.602953 2.369494 1.849593
v -6.602953 0.035466 1.849593
v -6.602953 2.369494 1.916273
v -6.602953 0.035466 1.916273
v -7.387035 2.369494 1.849593
v -7.387035 0.035466 1.849593
v -7.387035 2.369494 1.916273
v -7.387035 0.035466 1.916273
vn -0.0000 1.1670 -0.0000
vn -0.0000 -0.0000 0.0333
vn -0.3970 -0.0000 -0.0000
vn -0.0000 -1.1670 -0.0000
vn 0.3970 -0.0000 -0.0000
vn -0.0000 -0.0000 -0.0333
vt 0.625000 0.500000
vt 0.375000 0.500000
vt 0.625000 0.750000
vt 0.375000 0.750000
vt 0.875000 0.500000
vt 0.625000 0.250000
vt 0.125000 0.500000
vt 0.375000 0.250000
vt 0.875000 0.750000
vt 0.625000 1.000000
vt 0.625000 0.000000
vt 0.375000 1.000000
vt 0.375000 0.000000
vt 0.125000 0.750000
s 0
usemtl DarkGlass.002
f 25/43/19 29/47/19 31/51/19 27/45/19
f 28/46/20 27/45/20 31/52/20 32/54/20
f 32/55/21 31/53/21 29/48/21 30/50/21
f 30/49/22 26/44/22 28/46/22 32/56/22
f 26/44/23 25/43/23 27/45/23 28/46/23
f 30/50/24 29/48/24 25/43/24 26/44/24
o door glass.003
v -10.779345 2.369494 1.849593
v -10.779345 0.035466 1.849593
v -10.779345 2.369494 1.916273
v -10.779345 0.035466 1.916273
v -11.563426 2.369494 1.849593
v -11.563426 0.035466 1.849593
v -11.563426 2.369494 1.916273
v -11.563426 0.035466 1.916273
vn -0.0000 1.1670 -0.0000
vn -0.0000 -0.0000 0.0333
vn -0.3970 -0.0000 -0.0000
vn -0.0000 -1.1670 -0.0000
vn 0.3970 -0.0000 -0.0000
vn -0.0000 -0.0000 -0.0333
vt 0.625000 0.500000
vt 0.375000 0.500000
vt 0.625000 0.750000
vt 0.375000 0.750000
vt 0.875000 0.500000
vt 0.625000 0.250000
vt 0.125000 0.500000
vt 0.375000 0.250000
vt 0.875000 0.750000
vt 0.625000 1.000000
vt 0.625000 0.000000
vt 0.375000 1.000000
vt 0.375000 0.000000
vt 0.125000 0.750000
s 0
usemtl DarkGlass.003
f 33/57/25 37/61/25 39/65/25 35/59/25
f 36/60/26 35/59/26 39/66/26 40/68/26
f 40/69/27 39/67/27 37/62/27 38/64/27
f 38/63/28 34/58/28 36/60/28 40/70/28
f 34/58/29 33/57/29 35/59/29 36/60/29
f 38/64/30 37/62/30 33/57/30 34/58/30
o GuildClubs Glass wall
v -7.896138 2.428760 1.845285
v -7.896138 0.000000 1.845285
v -7.896138 2.428760 2.020135
v -7.896138 0.000000 2.020135
v -10.707726 2.428760 1.845285
v -10.707726 0.000000 1.845285
v -10.707726 2.428760 2.020135
v -10.707726 0.000000 2.020135
vn -0.0000 1.5000 -0.0000
vn -0.0000 -0.0000 0.0874
vn -2.7944 -0.0000 -0.0000
vn -0.0000 -1.5000 -0.0000
vn 2.7944 -0.0000 -0.0000
vn -0.0000 -0.0000 -0.0874
vt 0.625000 0.500000
vt 0.375000 0.500000
vt 0.625000 0.750000
vt 0.375000 0.750000
vt 0.875000 0.500000
vt 0.625000 0.250000
vt 0.125000 0.500000
vt 0.375000 0.250000
vt 0.875000 0.750000
vt 0.625000 1.000000
vt 0.625000 0.000000
vt 0.375000 1.000000
vt 0.375000 0.000000
vt 0.125000 0.750000
s 0
usemtl DarkGlass
f 41/71/31 45/75/31 47/79/31 43/73/31
f 44/74/32 43/73/32 47/80/32 48/82/32
f 48/83/33 47/81/33 45/76/33 46/78/33
f 46/77/34 42/72/34 44/74/34 48/84/34
f 42/72/35 41/71/35 43/73/35 44/74/35
f 46/78/36 45/76/36 41/71/36 42/72/36
o parent & care/guild meeting glass wall.001
v 6.493647 2.428760 1.845285
v 6.493647 0.000000 1.845285
v 6.493647 2.428760 2.020135
v 6.493647 0.000000 2.020135
v 5.057119 2.428760 1.845285
v 5.057119 0.000000 1.845285
v 5.057119 2.428760 2.020135
v 5.057119 0.000000 2.020135
vn -0.0000 1.5000 -0.0000
vn -0.0000 -0.0000 0.0874
vn -0.7183 -0.0000 -0.0000
vn -0.0000 -1.5000 -0.0000
vn 0.7183 -0.0000 -0.0000
vn -0.0000 -0.0000 -0.0874
vt 0.625000 0.500000
vt 0.375000 0.500000
vt 0.625000 0.750000
vt 0.375000 0.750000
vt 0.875000 0.500000
vt 0.625000 0.250000
vt 0.125000 0.500000
vt 0.375000 0.250000
vt 0.875000 0.750000
vt 0.625000 1.000000
vt 0.625000 0.000000
vt 0.375000 1.000000
vt 0.375000 0.000000
vt 0.125000 0.750000
s 0
usemtl DarkGlass
f 49/85/37 53/89/37 55/93/37 51/87/37
f 52/88/38 51/87/38 55/94/38 56/96/38
f 56/97/39 55/95/39 53/90/39 54/92/39
f 54/91/40 50/86/40 52/88/40 56/98/40
f 50/86/41 49/85/41 51/87/41 52/88/41
f 54/92/42 53/90/42 49/85/42 50/86/42
o Theatrette - Bottom Left glass wall
v 4.812383 2.400000 -3.141650
v 4.812383 0.000000 -3.141650
v 7.760053 2.400000 -3.141650
v 7.760053 0.000000 -3.141650
v 4.812383 2.400000 -2.941650
v 4.812383 0.000000 -2.941650
v 7.760053 2.400000 -2.941650
v 7.760053 0.000000 -2.941650
vn -0.0000 1.5000 -0.0000
vn 1.4738 -0.0000 -0.0000
vn -0.0000 -0.0000 0.1000
vn -0.0000 -1.5000 -0.0000
vn -0.0000 -0.0000 -0.1000
vn -1.4738 -0.0000 -0.0000
vt 0.625000 0.500000
vt 0.375000 0.500000
vt 0.625000 0.750000
vt 0.375000 0.750000
vt 0.875000 0.500000
vt 0.625000 0.250000
vt 0.125000 0.500000
vt 0.375000 0.250000
vt 0.875000 0.750000
vt 0.625000 1.000000
vt 0.625000 0.000000
vt 0.375000 1.000000
vt 0.375000 0.000000
vt 0.125000 0.750000
s 0
usemtl DarkGlass
f 57/99/43 61/103/43 63/107/43 59/101/43
f 60/102/44 59/101/44 63/108/44 64/110/44
f 64/111/45 63/109/45 61/104/45 62/106/45
f 62/105/46 58/100/46 60/102/46 64/112/46
f 58/100/47 57/99/47 59/101/47 60/102/47
f 62/106/48 61/104/48 57/99/48 58/100/48
o Theatrette - glass wall
v 4.996949 2.400000 -7.482034
v 4.996949 0.000000 -7.482034
v 4.996949 2.400000 -3.135219
v 4.996949 0.000000 -3.135219
v 4.796949 2.400000 -7.482034
v 4.796949 0.000000 -7.482034
v 4.796949 2.400000 -3.135219
v 4.796949 0.000000 -3.135219
vn -0.0000 1.5000 -0.0000
vn -0.0000 -0.0000 2.3487
vn -0.1000 -0.0000 -0.0000
vn -0.0000 -1.5000 -0.0000
vn 0.1000 -0.0000 -0.0000
vn -0.0000 -0.0000 -2.3487
vt 0.505000 0.505000
vt 0.495000 0.505000
vt 0.505000 0.515000
vt 0.495000 0.515000
vt 0.525000 0.505000
vt 0.505000 0.485000
vt 0.475000 0.505000
vt 0.495000 0.485000
vt 0.525000 0.515000
vt 0.505000 0.525000
vt 0.505000 0.475000
vt 0.495000 0.525000
vt 0.495000 0.475000
vt 0.475000 0.515000
s 0
usemtl DarkGlass
f 65/113/49 69/117/49 71/121/49 67/115/49
f 68/116/50 67/115/50 71/122/50 72/124/50
f 72/125/51 71/123/51 69/118/51 70/120/51
f 70/119/52 66/114/52 68/116/52 72/126/52
f 66/114/53 65/113/53 67/115/53 68/116/53
f 70/120/54 69/118/54 65/113/54 66/114/54
o door glass.004
v 9.436151 2.369494 1.849593
v 9.436151 0.035466 1.849593
v 9.436151 2.369494 1.916273
v 9.436151 0.035466 1.916273
v 8.584858 2.369494 1.849593
v 8.584858 0.035466 1.849593
v 8.584858 2.369494 1.916273
v 8.584858 0.035466 1.916273
vn -0.0000 1.1670 -0.0000
vn -0.0000 -0.0000 0.0333
vn -0.4311 -0.0000 -0.0000
vn -0.0000 -1.1670 -0.0000
vn 0.4311 -0.0000 -0.0000
vn -0.0000 -0.0000 -0.0333
vt 0.625000 0.500000
vt 0.375000 0.500000
vt 0.625000 0.750000
vt 0.375000 0.750000
vt 0.875000 0.500000
vt 0.625000 0.250000
vt 0.125000 0.500000
vt 0.375000 0.250000
vt 0.875000 0.750000
vt 0.625000 1.000000
vt 0.625000 0.000000
vt 0.375000 1.000000
vt 0.375000 0.000000
vt 0.125000 0.750000
s 0
usemtl DarkGlass.004
f 73/127/55 77/131/55 79/135/55 75/129/55
f 76/130/56 75/129/56 79/136/56 80/138/56
f 80/139/57 79/137/57 77/132/57 78/134/57
f 78/133/58 74/128/58 76/130/58 80/140/58
f 74/128/59 73/127/59 75/129/59 76/130/59
f 78/134/60 77/132/60 73/127/60 74/128/60
o parent & care/guild meeting glass wall.002
v 8.498414 2.428760 1.845285
v 8.498414 0.000000 1.845285
v 8.498414 2.428760 2.020135
v 8.498414 0.000000 2.020135
v 7.682133 2.428760 1.845285
v 7.682133 0.000000 1.845285
v 7.682133 2.428760 2.020135
v 7.682133 0.000000 2.020135
vn -0.0000 1.5000 -0.0000
vn -0.0000 -0.0000 0.0874
vn -0.5790 -0.0000 -0.0000
vn -0.0000 -1.5000 -0.0000
vn 0.5790 -0.0000 -0.0000
vn -0.0000 -0.0000 -0.0874
vt 0.625000 0.500000
vt 0.375000 0.500000
vt 0.625000 0.750000
vt 0.375000 0.750000
vt 0.875000 0.500000
vt 0.625000 0.250000
vt 0.125000 0.500000
vt 0.375000 0.250000
vt 0.875000 0.750000
vt 0.625000 1.000000
vt 0.625000 0.000000
vt 0.375000 1.000000
vt 0.375000 0.000000
vt 0.125000 0.750000
s 0
usemtl DarkGlass.005
f 81/141/61 85/145/61 87/149/61 83/143/61
f 84/144/62 83/143/62 87/150/62 88/152/62
f 88/153/63 87/151/63 85/146/63 86/148/63
f 86/147/64 82/142/64 84/144/64 88/154/64
f 82/142/65 81/141/65 83/143/65 84/144/65
f 86/148/66 85/146/66 81/141/66 82/142/66
o door glass.005
v -11.753670 2.369494 0.445672
v -11.753670 0.035466 0.445672
v -11.753670 2.369494 0.378992
v -11.753670 0.035466 0.378992
v -10.969588 2.369494 0.445672
v -10.969588 0.035466 0.445672
v -10.969588 2.369494 0.378992
v -10.969588 0.035466 0.378992
vn -0.0000 1.1670 -0.0000
vn -0.0000 -0.0000 -0.0333
vn 0.3970 -0.0000 -0.0000
vn -0.0000 -1.1670 -0.0000
vn -0.3970 -0.0000 -0.0000
vn -0.0000 -0.0000 0.0333
vt 0.625000 0.500000
vt 0.375000 0.500000
vt 0.625000 0.750000
vt 0.375000 0.750000
vt 0.875000 0.500000
vt 0.625000 0.250000
vt 0.125000 0.500000
vt 0.375000 0.250000
vt 0.875000 0.750000
vt 0.625000 1.000000
vt 0.625000 0.000000
vt 0.375000 1.000000
vt 0.375000 0.000000
vt 0.125000 0.750000
s 0
usemtl DarkGlass.006
f 89/155/67 93/159/67 95/163/67 91/157/67
f 92/158/68 91/157/68 95/164/68 96/166/68
f 96/167/69 95/165/69 93/160/69 94/162/69
f 94/161/70 90/156/70 92/158/70 96/168/70
f 90/156/71 89/155/71 91/157/71 92/158/71
f 94/162/72 93/160/72 89/155/72 90/156/72
o door glass.006
v -9.598523 2.369494 0.445672
v -9.598523 0.035466 0.445672
v -9.598523 2.369494 0.378992
v -9.598523 0.035466 0.378992
v -8.814442 2.369494 0.445672
v -8.814442 0.035466 0.445672
v -8.814442 2.369494 0.378992
v -8.814442 0.035466 0.378992
vn -0.0000 1.1670 -0.0000
vn -0.0000 -0.0000 -0.0333
vn 0.3970 -0.0000 -0.0000
vn -0.0000 -1.1670 -0.0000
vn -0.3970 -0.0000 -0.0000
vn -0.0000 -0.0000 0.0333
vt 0.625000 0.500000
vt 0.375000 0.500000
vt 0.625000 0.750000
vt 0.375000 0.750000
vt 0.875000 0.500000
vt 0.625000 0.250000
vt 0.125000 0.500000
vt 0.375000 0.250000
vt 0.875000 0.750000
vt 0.625000 1.000000
vt 0.625000 0.000000
vt 0.375000 1.000000
vt 0.375000 0.000000
vt 0.125000 0.750000
s 0
usemtl DarkGlass.007
f 97/169/73 101/173/73 103/177/73 99/171/73
f 100/172/74 99/171/74 103/178/74 104/180/74
f 104/181/75 103/179/75 101/174/75 102/176/75
f 102/175/76 98/170/76 100/172/76 104/182/76
f 98/170/77 97/169/77 99/171/77 100/172/77
f 102/176/78 101/174/78 97/169/78 98/170/78
o GuildClubs Glass wall.001
v -9.836330 3.000000 0.285856
v -9.836330 0.000000 0.285856
v -9.836330 3.000000 0.447051
v -9.836330 0.000000 0.447051
v -10.889849 3.000000 0.285856
v -10.889849 0.000000 0.285856
v -10.889849 3.000000 0.447051
v -10.889849 0.000000 0.447051
vn -0.0000 1.5000 -0.0000
vn -0.0000 -0.0000 0.0874
vn -1.0471 -0.0000 -0.0000
vn -0.0000 -1.5000 -0.0000
vn 1.0471 -0.0000 -0.0000
vn -0.0000 -0.0000 -0.0874
vt 0.625000 0.500000
vt 0.375000 0.500000
vt 0.625000 0.750000
vt 0.375000 0.750000
vt 0.875000 0.500000
vt 0.625000 0.250000
vt 0.125000 0.500000
vt 0.375000 0.250000
vt 0.875000 0.750000
vt 0.625000 1.000000
vt 0.625000 0.000000
vt 0.375000 1.000000
vt 0.375000 0.000000
vt 0.125000 0.750000
s 0
usemtl DarkGlass.008
f 105/183/79 109/187/79 111/191/79 107/185/79
f 108/186/80 107/185/80 111/192/80 112/194/80
f 112/195/81 111/193/81 109/188/81 110/190/81
f 110/189/82 106/184/82 108/186/82 112/196/82
f 106/184/83 105/183/83 107/185/83 108/186/83
f 110/190/84 109/188/84 105/183/84 106/184/84
o GuildClubs Glass wall.002
v -7.718474 3.000000 0.285856
v -7.718474 0.000000 0.285856
v -7.718474 3.000000 0.447051
v -7.718474 0.000000 0.447051
v -8.732753 3.000000 0.285856
v -8.732753 0.000000 0.285856
v -8.732753 3.000000 0.447051
v -8.732753 0.000000 0.447051
vn -0.0000 1.5000 -0.0000
vn -0.0000 -0.0000 0.0874
vn -1.0471 -0.0000 -0.0000
vn -0.0000 -1.5000 -0.0000
vn 1.0471 -0.0000 -0.0000
vn -0.0000 -0.0000 -0.0874
vt 0.625000 0.500000
vt 0.375000 0.500000
vt 0.625000 0.750000
vt 0.375000 0.750000
vt 0.875000 0.500000
vt 0.625000 0.250000
vt 0.125000 0.500000
vt 0.375000 0.250000
vt 0.875000 0.750000
vt 0.625000 1.000000
vt 0.625000 0.000000
vt 0.375000 1.000000
vt 0.375000 0.000000
vt 0.125000 0.750000
s 0
usemtl DarkGlass.009
f 113/197/85 117/201/85 119/205/85 115/199/85
f 116/200/86 115/199/86 119/206/86 120/208/86
f 120/209/87 119/207/87 117/202/87 118/204/87
f 118/203/88 114/198/88 116/200/88 120/210/88
f 114/198/89 113/197/89 115/199/89 116/200/89
f 118/204/90 117/202/90 113/197/90 114/198/90
o GuildClubs Glass wall.003
v -3.759587 2.428760 1.845285
v -3.759587 0.000000 1.845285
v -3.759587 2.428760 2.020135
v -3.759587 0.000000 2.020135
v -6.525830 2.428760 1.845285
v -6.525830 0.000000 1.845285
v -6.525830 2.428760 2.020135
v -6.525830 0.000000 2.020135
vn -0.0000 1.5000 -0.0000
vn -0.0000 -0.0000 0.0874
vn -2.7944 -0.0000 -0.0000
vn -0.0000 -1.5000 -0.0000
vn 2.7944 -0.0000 -0.0000
vn -0.0000 -0.0000 -0.0874
vt 0.625000 0.500000
vt 0.375000 0.500000
vt 0.625000 0.750000
vt 0.375000 0.750000
vt 0.875000 0.500000
vt 0.625000 0.250000
vt 0.125000 0.500000
vt 0.375000 0.250000
vt 0.875000 0.750000
vt 0.625000 1.000000
vt 0.625000 0.000000
vt 0.375000 1.000000
vt 0.375000 0.000000
vt 0.125000 0.750000
s 0
usemtl DarkGlass.010
f 121/211/91 125/215/91 127/219/91 123/213/91
f 124/214/92 123/213/92 127/220/92 128/222/92
f 128/223/93 127/221/93 125/216/93 126/218/93
f 126/217/94 122/212/94 124/214/94 128/224/94
f 122/212/95 121/211/95 123/213/95 124/214/95
f 126/218/96 125/216/96 121/211/96 122/212/96
o Main - Top
v 4.832432 2.428760 -7.753190
v 4.832432 0.000000 -7.753190
v 4.832432 2.428760 -7.453190
v 4.832432 0.000000 -7.453190
v -14.512302 2.428760 -7.753190
v -14.512302 0.000000 -7.753190
v -14.512302 2.428760 -7.453190
v -14.512302 0.000000 -7.453190
vn -0.0000 1.5000 -0.0000
vn -0.0000 -0.0000 0.1500
vn -9.6724 -0.0000 -0.0000
vn -0.0000 -1.5000 -0.0000
vn 9.6724 -0.0000 -0.0000
vn -0.0000 -0.0000 -0.1500
vt 0.625000 0.500000
vt 0.375000 0.500000
vt 0.625000 0.750000
vt 0.375000 0.750000
vt 0.875000 0.500000
vt 0.625000 0.250000
vt 0.125000 0.500000
vt 0.375000 0.250000
vt 0.875000 0.750000
vt 0.625000 1.000000
vt 0.625000 0.000000
vt 0.375000 1.000000
vt 0.375000 0.000000
vt 0.125000 0.750000
s 0
usemtl DarkGlass
f 129/225/97 133/229/97 135/233/97 131/227/97
f 132/228/98 131/227/98 135/234/98 136/236/98
f 136/237/99 135/235/99 133/230/99 134/232/99
f 134/231/100 130/226/100 132/228/100 136/238/100
f 130/226/101 129/225/101 131/227/101 132/228/101
f 134/232/102 133/230/102 129/225/102 130/226/102
