# Blender 3.1.0
# www.blender.org
mtllib laptop.mtl
o Cube.013
v -0.125987 0.135000 -0.155000
v -0.190000 0.135000 -0.155000
v -0.190000 0.135000 -0.133098
v -0.177010 0.135000 -0.133098
v -0.125987 -0.135000 0.135000
v -0.125987 -0.104102 0.135000
v -0.190000 -0.104102 0.135000
v -0.190000 -0.135000 0.135000
v -0.190000 -0.081171 -0.143790
v -0.190000 -0.091993 -0.138186
v -0.190000 -0.089738 -0.114300
v -0.190000 -0.077128 -0.120566
v 0.125987 -0.128239 -0.097652
v 0.190000 -0.128239 -0.097652
v 0.190000 -0.135000 0.135000
v 0.125987 -0.135000 0.135000
v 0.190000 -0.081171 -0.143790
v 0.190000 -0.077128 -0.120566
v 0.190000 -0.089738 -0.114300
v 0.190000 -0.091993 -0.138186
v 0.125987 0.122274 -0.149395
v 0.125987 0.135000 -0.155000
v 0.190000 0.135000 -0.155000
v 0.190000 0.122274 -0.149395
v 0.177010 0.124295 -0.134105
v 0.190000 0.124295 -0.126832
v 0.190000 0.135000 -0.133098
v 0.177010 0.135000 -0.133098
v -0.190000 0.124295 -0.126832
v -0.177010 0.124295 -0.134105
v -0.190000 0.122274 -0.149395
v -0.125987 0.122274 -0.149395
v -0.190000 -0.128239 -0.097652
v -0.125987 -0.128239 -0.097652
v 0.190000 -0.104102 0.135000
v 0.125987 -0.104102 0.135000
v -0.125987 -0.098119 -0.113099
v 0.125987 -0.098119 -0.113099
v 0.177010 -0.089738 -0.114300
v -0.177010 -0.089738 -0.114300
v -0.125987 -0.102633 -0.137397
v -0.125987 -0.091993 -0.138186
v 0.125987 -0.091993 -0.138186
v 0.125987 -0.102633 -0.137397
v 0.125987 -0.135000 -0.135000
v 0.190000 -0.102633 -0.137397
v 0.190000 -0.135000 -0.135000
v -0.190000 -0.135000 -0.135000
v -0.190000 -0.102633 -0.137397
v -0.125987 -0.135000 -0.135000
v 0.190000 -0.098119 -0.113099
v -0.190000 -0.098119 -0.113099
v -0.125987 -0.081171 -0.143790
v 0.125987 -0.081171 -0.143790
v 0.177010 -0.077128 -0.127839
v -0.177010 -0.077128 -0.127839
vn -0.0000 1.0000 -0.0000
vn -0.0000 -0.0000 1.0000
vn -1.0000 -0.0000 -0.0000
vn -0.0000 -0.9996 -0.0286
vn -0.0000 -0.9996 -0.0287
vn 1.0000 -0.0000 -0.0000
vn -0.0000 -0.4031 -0.9152
vn -0.4743 0.2102 0.8549
vn -0.4743 0.2100 0.8550
vn 0.4743 0.2102 0.8549
vn -0.0000 -0.0933 0.9956
vn -0.0000 0.1423 0.9898
vn -0.0000 -0.0742 -0.9972
vn -0.0000 -0.0743 -0.9972
vn 0.5727 -0.7964 -0.1945
vn -0.0000 -0.9956 0.0940
vn -0.0000 0.9831 -0.1830
vn -0.5727 -0.7964 -0.1945
vn -0.0000 -0.4598 -0.8880
vn -0.0000 -0.0271 -0.9996
vn -0.0000 -0.0272 -0.9996
vn -0.0000 0.7318 0.6816
vn -0.0000 0.0311 0.9995
vn 0.3996 0.5662 0.7209
vn 0.3996 0.5660 0.7210
vn 0.7426 0.0208 0.6694
vn 0.7426 0.0209 0.6694
vn -0.3996 0.5660 0.7210
vn -0.7426 0.0209 0.6694
vn -0.7426 0.0208 0.6694
vn -0.0000 -0.9841 0.1776
vn -0.0000 -0.9841 0.1778
vn -0.0000 0.9997 0.0244
vt 0.843507 0.115975
vt 0.854445 0.126913
vt 0.859914 0.126913
vt 0.843507 0.110506
vt 0.846470 0.077745
vt 0.859914 0.128244
vt 0.758802 0.142316
vt 0.817861 0.142316
vt 0.758802 0.182602
vt 0.817861 0.182602
vt 0.854445 0.128244
vt 0.628827 0.198692
vt 0.847470 0.129216
vt 0.876080 0.129216
vt 0.876080 0.212549
vt 0.884870 0.418901
vt 0.046050 0.035046
vt 0.847470 0.212549
vt 0.602943 0.198692
vt 0.872433 0.418901
vt 0.714726 0.043387
vt 0.706351 0.077745
vt 0.636292 0.077745
vt 0.862684 0.131882
vt 0.692964 0.043387
vt 0.836163 0.196454
vt 0.609771 0.142316
vt 0.816938 0.019277
vt 0.679134 0.142316
vt 0.897019 0.170385
vt 0.654712 0.131781
vt 0.680596 0.131781
vt 0.931137 0.218471
vt 0.680596 0.198692
vt 0.654712 0.198692
vt 0.931137 0.301804
vt 0.714726 0.121039
vt 0.484881 0.500000
vt 0.787408 0.125370
vt 0.910448 0.066311
vt 0.457664 0.435429
vt 0.388300 0.435429
vt 0.718045 0.125370
vt 0.414821 0.500000
vt 0.692964 0.121039
vt 0.554940 0.416667
vt 0.838909 0.121444
vt 0.736487 0.095155
vt 0.625000 0.416667
vt 0.843507 0.121444
vt 0.848976 0.126913
vt 0.843507 0.126913
vt 0.625000 0.500000
vt 0.736487 0.121039
vt 0.554940 0.500000
vt 0.812478 0.109692
vt 0.748497 0.222888
vt 0.884232 0.996204
vt 0.979811 0.026026
vt 0.812478 0.149978
vt 0.979811 0.066311
vt 0.527027 0.435429
vt 0.881841 0.149978
vt 0.843507 0.128244
vt 0.596390 0.435429
vt 0.881841 0.109692
vt 0.817861 0.222888
vt 0.848976 0.128244
vt 0.689439 0.142316
vt 0.886301 0.019277
vt 0.748497 0.142316
vt 0.689439 0.182602
vt 0.748497 0.182602
vt 0.010615 0.996204
vt 0.886301 0.059563
vt 0.838909 0.110506
vt 0.736487 0.043387
vt 0.776411 0.077745
vt 0.838909 0.115975
vt 0.736487 0.069271
vt 0.602943 0.131781
vt 0.872433 0.137963
vt 0.740196 0.145777
vt 0.628827 0.131781
vt 0.813686 0.170385
vt 0.823529 0.145777
vt 0.959746 0.218471
vt 0.689482 0.198692
vt 0.730721 0.035046
vt 0.959746 0.301804
vt 0.813019 0.143230
vt 0.817575 0.126913
vt 0.722014 0.258843
vt 0.813019 0.183516
vt 0.965588 0.139222
vt 0.827101 0.120031
vt 0.826320 0.183516
vt 0.978888 0.139222
vt 0.388300 0.395143
vt 0.609771 0.222888
vt 0.718045 0.085084
vt 0.826320 0.143230
vt 0.836163 0.236739
vt 0.880457 0.113700
vt 0.609771 0.182602
vt 0.689904 0.069271
vt 0.829067 0.115975
vt 0.897126 0.092177
vt 0.862684 0.215216
vt 0.906978 0.092177
vt 0.692964 0.069271
vt 1.005409 0.160745
vt 0.414821 0.416667
vt 0.692964 0.095155
vt 0.689904 0.095155
vt 0.995557 0.160745
vt 0.829067 0.121444
vt 0.680596 0.095155
vt 0.897019 0.135804
vt 0.654712 0.121039
vt 0.689904 0.121039
vt 0.829067 0.126913
vt 0.680596 0.121039
vt 0.680596 0.043387
vt 0.872433 0.092864
vt 0.740196 0.111196
vt 0.689904 0.043387
vt 0.885461 0.092864
vt 0.829067 0.110506
vt 0.680596 0.069271
vt 0.813686 0.135804
vt 0.823529 0.111196
vt 0.660539 0.121039
vt 0.822863 0.126913
vt 0.730721 0.468669
vt 0.791824 0.201543
vt 0.814932 0.126913
vt 0.046050 0.468669
vt 0.714726 0.069271
vt 0.714726 0.095155
vt 0.679134 0.222888
vt 0.884232 0.499889
vt 0.787408 0.085084
vt 0.910448 0.026026
vt 0.010615 0.499889
vt 0.679134 0.182602
vt 0.816938 0.059563
s 1
usemtl Computer
f 1/2/1 2/3/1 3/6/1 4/11/1
f 5/13/2 6/14/2 7/15/2 8/18/2
f 9/22/3 10/23/3 11/27/3 12/29/3
f 13/31/4 14/32/5 15/34/5 16/35/4
f 17/38/6 18/41/6 19/42/6 20/44/6
f 21/46/7 22/49/7 23/53/7 24/55/7
f 25/56/8 26/60/8 27/63/9 28/66/8
f 29/69/10 30/72/10 4/9/10 3/7/10
f 30/73/11 25/57/11 28/67/11 4/10/11
f 31/76/7 2/4/7 1/1/7 32/79/7
f 32/79/7 1/1/7 22/50/7 21/47/7
f 33/81/5 34/84/4 5/12/4 8/19/5
f 34/84/4 13/31/4 16/35/4 5/12/4
f 15/33/2 35/87/2 36/90/2 16/36/2
f 23/52/1 22/51/1 28/68/1 27/64/1
f 22/51/1 1/2/1 4/11/1 28/68/1
f 37/91/12 38/94/12 39/97/12 40/102/12
f 41/106/13 42/111/14 43/114/14 44/115/13
f 45/118/14 44/115/13 46/121/14 47/123/14
f 48/124/14 49/127/14 41/106/13 50/130/14
f 50/130/14 41/106/13 44/115/13 45/118/14
f 47/123/6 46/121/6 51/133/6 35/88/6 15/34/6 14/32/6
f 8/20/3 7/16/3 52/136/3 49/128/3 48/125/3 33/82/3
f 38/95/15 44/116/15 43/112/15 39/98/15
f 19/42/16 39/99/16 43/113/16 20/44/16
f 51/134/17 46/122/17 44/117/17 38/96/17
f 37/92/17 41/107/17 49/129/17 52/137/17
f 40/103/16 11/26/16 10/24/16 42/109/16
f 37/93/18 40/104/18 42/110/18 41/108/18
f 42/111/19 53/139/19 54/140/19 43/114/19
f 53/139/20 32/80/20 21/48/20 54/140/20
f 10/25/19 9/21/19 53/139/19 42/111/19
f 9/21/21 31/77/21 32/80/20 53/139/20
f 40/105/22 39/100/22 55/141/22 56/146/22
f 56/145/23 55/142/23 25/58/23 30/74/23
f 11/27/24 40/105/25 56/146/25 12/29/25
f 12/28/26 56/147/27 30/75/27 29/70/26
f 39/101/28 19/43/28 18/39/28 55/143/28
f 55/144/29 18/40/30 26/61/30 25/59/29
f 43/114/19 54/140/19 17/37/19 20/45/19
f 54/140/20 21/48/20 24/54/21 17/37/21
f 23/53/6 27/65/6 26/62/6 24/55/6
f 24/55/6 26/62/6 18/41/6 17/38/6
f 2/5/3 31/78/3 29/71/3 3/8/3
f 31/78/3 9/22/3 12/29/3 29/71/3
f 50/131/31 45/119/31 13/30/31 34/85/31
f 48/126/32 50/132/31 34/86/31 33/83/32
f 45/120/31 47/123/32 14/32/32 13/31/31
f 52/138/33 7/17/33 35/89/33 51/135/33
f 5/13/2 16/36/2 36/90/2 6/14/2
