# Blender 3.1.0
# www.blender.org
mtllib TheDenCollisions.mtl
o Top
v 15.330101 3.000000 -8.453190
v 15.330101 0.000000 -8.453190
v 15.330101 3.000000 -7.453190
v 15.330101 0.000000 -7.453190
v -15.021439 3.000000 -8.453190
v -15.021439 0.000000 -8.453190
v -15.021439 3.000000 -7.453190
v -15.021439 0.000000 -7.453190
vn -0.0000 1.5000 -0.0000
vn -0.0000 -0.0000 0.5000
vn -15.1758 -0.0000 -0.0000
vn -0.0000 -1.5000 -0.0000
vn 15.1758 -0.0000 -0.0000
vn -0.0000 -0.0000 -0.5000
vt 0.625000 0.500000
vt 0.375000 0.500000
vt 0.625000 0.750000
vt 0.375000 0.750000
vt 0.875000 0.500000
vt 0.625000 0.250000
vt 0.125000 0.500000
vt 0.375000 0.250000
vt 0.875000 0.750000
vt 0.625000 1.000000
vt 0.625000 0.000000
vt 0.375000 1.000000
vt 0.375000 0.000000
vt 0.125000 0.750000
s 0
usemtl Material.038
f 1/1/1 5/5/1 7/9/1 3/3/1
f 4/4/2 3/3/2 7/10/2 8/12/2
f 8/13/3 7/11/3 5/6/3 6/8/3
f 6/7/4 2/2/4 4/4/4 8/14/4
f 2/2/5 1/1/5 3/3/5 4/4/5
f 6/8/6 5/6/6 1/1/6 2/2/6
o Bottom
v 10.267729 3.000000 1.845210
v 10.267729 0.000000 1.845210
v 10.267729 3.000000 2.845210
v 10.267729 0.000000 2.845210
v -11.819096 3.000000 1.845210
v -11.819096 0.000000 1.845210
v -11.819096 3.000000 2.845210
v -11.819096 0.000000 2.845210
vn -0.0000 1.5000 -0.0000
vn -0.0000 -0.0000 0.5000
vn -11.0434 -0.0000 -0.0000
vn -0.0000 -1.5000 -0.0000
vn 11.0434 -0.0000 -0.0000
vn -0.0000 -0.0000 -0.5000
vt 0.625000 0.500000
vt 0.375000 0.500000
vt 0.625000 0.750000
vt 0.375000 0.750000
vt 0.875000 0.500000
vt 0.625000 0.250000
vt 0.125000 0.500000
vt 0.375000 0.250000
vt 0.875000 0.750000
vt 0.625000 1.000000
vt 0.625000 0.000000
vt 0.375000 1.000000
vt 0.375000 0.000000
vt 0.125000 0.750000
s 0
usemtl Material.039
f 9/15/7 13/19/7 15/23/7 11/17/7
f 12/18/8 11/17/8 15/24/8 16/26/8
f 16/27/9 15/25/9 13/20/9 14/22/9
f 14/21/10 10/16/10 12/18/10 16/28/10
f 10/16/11 9/15/11 11/17/11 12/18/11
f 14/22/12 13/20/12 9/15/12 10/16/12
o Bottom Left.001
v -10.933090 3.000000 2.488100
v -10.933090 0.000000 2.488100
v -10.933090 3.000000 3.488100
v -10.933090 0.000000 3.488100
v -15.366093 3.000000 2.488100
v -15.366093 0.000000 2.488100
v -15.366093 3.000000 3.488100
v -15.366093 0.000000 3.488100
vn -0.0000 1.5000 -0.0000
vn -0.0000 -0.0000 0.5000
vn -2.2165 -0.0000 -0.0000
vn -0.0000 -1.5000 -0.0000
vn 2.2165 -0.0000 -0.0000
vn -0.0000 -0.0000 -0.5000
vt 0.625000 0.500000
vt 0.375000 0.500000
vt 0.625000 0.750000
vt 0.375000 0.750000
vt 0.875000 0.500000
vt 0.625000 0.250000
vt 0.125000 0.500000
vt 0.375000 0.250000
vt 0.875000 0.750000
vt 0.625000 1.000000
vt 0.625000 0.000000
vt 0.375000 1.000000
vt 0.375000 0.000000
vt 0.125000 0.750000
s 0
usemtl Transparent75
f 17/29/13 21/33/13 23/37/13 19/31/13
f 20/32/14 19/31/14 23/38/14 24/40/14
f 24/41/15 23/39/15 21/34/15 22/36/15
f 22/35/16 18/30/16 20/32/16 24/42/16
f 18/30/17 17/29/17 19/31/17 20/32/17
f 22/36/18 21/34/18 17/29/18 18/30/18
o Middle Room
v -7.569115 3.000000 -2.858999
v -7.569115 0.000000 -2.858999
v -7.569115 3.000000 0.415970
v -7.569115 0.000000 0.415970
v -12.002117 3.000000 -2.858999
v -12.002117 0.000000 -2.858999
v -12.002117 3.000000 0.415970
v -12.002117 0.000000 0.415970
vn -0.0000 1.5000 -0.0000
vn -0.0000 -0.0000 1.6375
vn -2.2165 -0.0000 -0.0000
vn -0.0000 -1.5000 -0.0000
vn 2.2165 -0.0000 -0.0000
vn -0.0000 -0.0000 -1.6375
vt 0.625000 0.500000
vt 0.375000 0.500000
vt 0.625000 0.750000
vt 0.375000 0.750000
vt 0.875000 0.500000
vt 0.625000 0.250000
vt 0.125000 0.500000
vt 0.375000 0.250000
vt 0.875000 0.750000
vt 0.625000 1.000000
vt 0.625000 0.000000
vt 0.375000 1.000000
vt 0.375000 0.000000
vt 0.125000 0.750000
s 0
usemtl Material.041
f 25/43/19 29/47/19 31/51/19 27/45/19
f 28/46/20 27/45/20 31/52/20 32/54/20
f 32/55/21 31/53/21 29/48/21 30/50/21
f 30/49/22 26/44/22 28/46/22 32/56/22
f 26/44/23 25/43/23 27/45/23 28/46/23
f 30/50/24 29/48/24 25/43/24 26/44/24
o Left
v -14.120000 3.000000 -7.542170
v -14.120000 0.000000 -7.542170
v -14.120000 3.000000 -0.072270
v -14.120000 0.000000 -0.072270
v -15.120000 3.000000 -7.542170
v -15.120000 0.000000 -7.542170
v -15.120000 3.000000 -0.072270
v -15.120000 0.000000 -0.072270
vn -0.0000 1.5000 -0.0000
vn -0.0000 -0.0000 3.7349
vn -0.5000 -0.0000 -0.0000
vn -0.0000 -1.5000 -0.0000
vn 0.5000 -0.0000 -0.0000
vn -0.0000 -0.0000 -3.7350
vt 0.625000 0.500000
vt 0.375000 0.500000
vt 0.625000 0.750000
vt 0.375000 0.750000
vt 0.875000 0.500000
vt 0.625000 0.250000
vt 0.125000 0.500000
vt 0.375000 0.250000
vt 0.875000 0.750000
vt 0.625000 1.000000
vt 0.625000 0.000000
vt 0.375000 1.000000
vt 0.375000 0.000000
vt 0.125000 0.750000
s 0
usemtl Material.042
f 33/57/25 37/61/25 39/65/25 35/59/25
f 36/60/26 35/59/26 39/66/26 40/68/26
f 40/69/27 39/67/27 37/62/27 38/64/27
f 38/63/28 34/58/28 36/60/28 40/70/28
f 34/58/29 33/57/29 35/59/29 36/60/29
f 38/64/30 37/62/30 33/57/30 34/58/30
o Bottom Left
v -14.680000 3.000000 -0.225316
v -14.680000 0.000000 -0.225316
v -14.680000 3.000000 2.648202
v -14.680000 0.000000 2.648202
v -15.680000 3.000000 -0.225316
v -15.680000 0.000000 -0.225316
v -15.680000 3.000000 2.648202
v -15.680000 0.000000 2.648202
vn -0.0000 1.5000 -0.0000
vn -0.0000 -0.0000 1.4368
vn -0.5000 -0.0000 -0.0000
vn -0.0000 -1.5000 -0.0000
vn 0.5000 -0.0000 -0.0000
vn -0.0000 -0.0000 -1.4368
vt 0.625000 0.500000
vt 0.375000 0.500000
vt 0.625000 0.750000
vt 0.375000 0.750000
vt 0.875000 0.500000
vt 0.625000 0.250000
vt 0.125000 0.500000
vt 0.375000 0.250000
vt 0.875000 0.750000
vt 0.625000 1.000000
vt 0.625000 0.000000
vt 0.375000 1.000000
vt 0.375000 0.000000
vt 0.125000 0.750000
s 0
usemtl Material.043
f 41/71/31 45/75/31 47/79/31 43/73/31
f 44/74/32 43/73/32 47/80/32 48/82/32
f 48/83/33 47/81/33 45/76/33 46/78/33
f 46/77/34 42/72/34 44/74/34 48/84/34
f 42/72/35 41/71/35 43/73/35 44/74/35
f 46/78/36 45/76/36 41/71/36 42/72/36
o Bottom Right
v 15.083402 3.137308 -2.909741
v 15.083402 -0.137308 -2.909741
v 15.083402 3.137308 2.130828
v 15.083402 -0.137308 2.130828
v 9.709519 3.137308 -2.909741
v 9.709519 -0.137308 -2.909741
v 9.709519 3.137308 2.130828
v 9.709519 -0.137308 2.130828
vn -0.0000 1.6373 -0.0000
vn -0.0000 -0.0000 2.5203
vn -2.6869 -0.0000 -0.0000
vn -0.0000 -1.6373 -0.0000
vn 2.6869 -0.0000 -0.0000
vn -0.0000 -0.0000 -2.5203
vt 0.625000 0.500000
vt 0.375000 0.500000
vt 0.625000 0.750000
vt 0.375000 0.750000
vt 0.875000 0.500000
vt 0.625000 0.250000
vt 0.125000 0.500000
vt 0.375000 0.250000
vt 0.875000 0.750000
vt 0.625000 1.000000
vt 0.625000 0.000000
vt 0.375000 1.000000
vt 0.375000 0.000000
vt 0.125000 0.750000
s 0
usemtl Material.044
f 49/85/37 53/89/37 55/93/37 51/87/37
f 52/88/38 51/87/38 55/94/38 56/96/38
f 56/97/39 55/95/39 53/90/39 54/92/39
f 54/91/40 50/86/40 52/88/40 56/98/40
f 50/86/41 49/85/41 51/87/41 52/88/41
f 54/92/42 53/90/42 49/85/42 50/86/42
o Top Right
v 15.536477 3.000000 -8.224418
v 15.536477 0.000000 -8.224418
v 15.536477 3.000000 -1.931603
v 15.536477 0.000000 -1.931603
v 14.536477 3.000000 -8.224418
v 14.536477 0.000000 -8.224418
v 14.536477 3.000000 -1.931603
v 14.536477 0.000000 -1.931603
vn -0.0000 1.5000 -0.0000
vn -0.0000 -0.0000 3.1464
vn -0.5000 -0.0000 -0.0000
vn -0.0000 -1.5000 -0.0000
vn 0.5000 -0.0000 -0.0000
vn -0.0000 -0.0000 -3.1464
vt 0.625000 0.500000
vt 0.375000 0.500000
vt 0.625000 0.750000
vt 0.375000 0.750000
vt 0.875000 0.500000
vt 0.625000 0.250000
vt 0.125000 0.500000
vt 0.375000 0.250000
vt 0.875000 0.750000
vt 0.625000 1.000000
vt 0.625000 0.000000
vt 0.375000 1.000000
vt 0.375000 0.000000
vt 0.125000 0.750000
s 0
usemtl Material.045
f 57/99/43 61/103/43 63/107/43 59/101/43
f 60/102/44 59/101/44 63/108/44 64/110/44
f 64/111/45 63/109/45 61/104/45 62/106/45
f 62/105/46 58/100/46 60/102/46 64/112/46
f 58/100/47 57/99/47 59/101/47 60/102/47
f 62/106/48 61/104/48 57/99/48 58/100/48
o Floor
v -18.637897 -0.005000 -7.614707
v -18.637897 -0.255000 -7.614707
v 17.205841 -0.005000 -7.614709
v 17.205841 -0.255000 -7.614709
v -18.637897 -0.005000 8.369568
v -18.637897 -0.255000 8.369568
v 17.205841 -0.005000 8.369566
v 17.205841 -0.255000 8.369566
v -13.517364 -0.255000 8.369567
v -8.396830 -0.255000 8.369567
v -3.276295 -0.255000 8.369566
v 1.844239 -0.255000 8.369566
v 6.964774 -0.255000 8.369566
v 12.085307 -0.255000 8.369566
v -13.517364 -0.005000 -7.614708
v -8.396830 -0.005000 -7.614708
v -3.276295 -0.005000 -7.614708
v 1.844239 -0.005000 -7.614708
v 6.964773 -0.005000 -7.614709
v 12.085307 -0.005000 -7.614709
v 12.085307 -0.005000 8.369566
v 6.964774 -0.005000 8.369566
v 1.844239 -0.005000 8.369566
v -3.276295 -0.005000 8.369566
v -8.396830 -0.005000 8.369567
v -13.517364 -0.005000 8.369567
v 12.085307 -0.255000 -7.614709
v 6.964773 -0.255000 -7.614709
v 1.844239 -0.255000 -7.614708
v -3.276295 -0.255000 -7.614708
v -8.396830 -0.255000 -7.614708
v -13.517364 -0.255000 -7.614708
v -18.637897 -0.255000 0.377430
v 17.205841 -0.005000 0.377428
v 17.205841 -0.255000 0.377428
v -18.637897 -0.005000 0.377430
v -13.517364 -0.255000 0.377430
v -8.396830 -0.255000 0.377429
v -3.276295 -0.255000 0.377429
v 1.844239 -0.255000 0.377429
v 6.964773 -0.255000 0.377429
v 12.085307 -0.255000 0.377428
v 4.404506 -0.255000 8.369566
v 4.404505 -0.005000 -7.614708
v 4.404506 -0.005000 8.369566
v 4.404505 -0.255000 -7.614708
v 4.404506 -0.255000 0.377429
v 9.525041 -0.255000 8.369566
v 9.525041 -0.005000 -7.614709
v 9.525041 -0.005000 8.369566
v 9.525041 -0.255000 -7.614709
v 9.525041 -0.255000 0.377429
v -0.716028 -0.255000 8.369566
v -0.716029 -0.005000 -7.614708
v -0.716028 -0.005000 8.369566
v -0.716029 -0.255000 -7.614708
v -0.716028 -0.255000 0.377429
v -5.836562 -0.255000 8.369566
v -5.836563 -0.005000 -7.614708
v -5.836562 -0.005000 8.369566
v -5.836563 -0.255000 -7.614708
v -5.836562 -0.255000 0.377429
v -10.957097 -0.255000 8.369567
v -10.957097 -0.005000 -7.614708
v -10.957097 -0.005000 8.369567
v -10.957097 -0.255000 -7.614708
v -10.957097 -0.255000 0.377429
v -16.077631 -0.005000 8.369567
v -16.077631 -0.255000 -7.614708
v -16.077631 -0.255000 8.369567
v -16.077631 -0.005000 -7.614708
v -16.077631 -0.255000 0.377430
v 14.645575 -0.255000 8.369566
v 14.645575 -0.005000 -7.614709
v 14.645575 -0.005000 8.369566
v 14.645575 -0.255000 -7.614709
v 14.645575 -0.255000 0.377428
v -18.637897 -0.255000 4.373498
v 17.205841 -0.005000 4.373497
v -13.517364 -0.255000 4.373498
v -8.396830 -0.255000 4.373498
v -3.276295 -0.255000 4.373498
v 1.844239 -0.255000 4.373498
v 6.964773 -0.255000 4.373497
v 12.085307 -0.255000 4.373497
v 17.205841 -0.255000 4.373497
v -18.637897 -0.005000 4.373498
v 4.404506 -0.255000 4.373497
v 9.525041 -0.255000 4.373497
v -0.716028 -0.255000 4.373498
v -5.836562 -0.255000 4.373498
v -10.957097 -0.255000 4.373498
v -16.077631 -0.255000 4.373498
v 14.645575 -0.255000 4.373497
v 17.205841 -0.255000 -3.618640
v -18.637897 -0.005000 -3.618639
v -18.637897 -0.255000 -3.618639
v 17.205841 -0.005000 -3.618640
v -13.517364 -0.255000 -3.618639
v -8.396830 -0.255000 -3.618639
v -3.276295 -0.255000 -3.618640
v 1.844239 -0.255000 -3.618640
v 6.964773 -0.255000 -3.618640
v 12.085307 -0.255000 -3.618640
v 4.404506 -0.255000 -3.618640
v 9.525041 -0.255000 -3.618640
v -0.716028 -0.255000 -3.618640
v -5.836562 -0.255000 -3.618639
v -10.957097 -0.255000 -3.618639
v -16.077631 -0.255000 -3.618639
v 14.645575 -0.255000 -3.618640
vn 17.9219 -0.0000 -0.0000
vn -0.0000 -0.0000 7.9921
vn -0.0000 -0.1250 -0.0000
vn -0.0000 -0.0000 -7.9921
vn -17.9219 -0.0000 -0.0000
vn -0.0000 0.1250 -0.0000
vt 0.007552 0.974537
vt 0.276302 0.669907
vt -11.951389 6.495833
vt 0.007552 0.695833
vt 0.363802 0.651389
vt 0.276302 0.989352
vt 0.005469 0.989352
vt 0.122910 0.256174
vt 12.951389 6.495833
vt 0.003385 0.651389
vt 0.005469 0.669907
vt 0.217412 0.256174
vt 0.284635 0.990278
vt 0.377344 0.974537
vt -11.951389 -5.495833
vt 0.284635 0.662500
vt 0.367448 0.651389
vt 0.377344 0.695833
vt 0.122910 0.161672
vt 0.020052 0.662500
vt 12.951389 -5.495833
vt 0.217412 0.161672
vt 0.020052 0.990278
vt 0.001302 0.006019
vt 0.020052 0.662500
vt 0.379427 0.662500
vt 0.363802 0.006019
vt 0.001302 0.006019
vt 0.020052 0.662500
vt 0.286719 0.990278
vt 0.363802 0.006019
vt 0.001302 0.006019
vt 0.297135 0.662500
vt 0.374740 0.662500
vt 0.363802 0.006019
vt 0.001302 0.006019
vt 0.020052 0.662500
vt 0.379427 0.662500
vt 0.361719 0.006019
vt 0.001302 0.006019
vt 0.020052 0.662500
vt 0.290885 0.990278
vt 0.363802 0.006019
vt 0.001302 0.006019
vt 0.292969 0.662500
vt 0.020052 0.990278
vt 0.358073 0.004167
vt 0.001302 0.006019
vt 0.551302 0.993056
vt 0.926823 0.993056
vt 0.276302 0.989352
vt 0.007552 0.669907
vt 0.007552 0.989352
vt 0.651823 0.989352
vt 0.007552 0.985648
vt 0.383073 0.985648
vt 0.651823 0.669907
vt 0.553385 0.658796
vt 0.553385 0.978241
vt 0.651823 0.989352
vt 0.292969 0.990278
vt 0.020052 0.662500
vt 0.020052 0.990278
vt 0.290885 0.662500
vt 0.020052 0.990278
vt 0.379427 0.990278
vt 0.297135 0.990278
vt 0.374740 0.990278
vt 0.020052 0.990278
vt 0.286719 0.662500
vt 0.020052 0.990278
vt 0.379427 0.990278
vt 0.553385 0.658796
vt 0.003385 0.651389
vt 0.651823 0.669907
vt 0.361719 0.651389
vt 0.651823 0.989352
vt 0.003385 0.651389
vt 0.361719 0.651389
vt 0.553385 0.978241
vt 0.007552 0.666204
vt 0.003385 0.651389
vt 0.361719 0.651389
vt 0.383073 0.666204
vt 0.007552 0.669907
vt 0.003385 0.651389
vt 0.361719 0.651389
vt 0.651823 0.669907
vt 0.276302 0.669907
vt 0.001302 0.651389
vt 0.363802 0.651389
vt 0.007552 0.989352
vt 0.551302 0.673611
vt 0.003385 0.651389
vt 0.003385 0.006019
vt 0.926823 0.673611
vt 0.377344 0.974537
vt 0.363802 0.651389
vt 0.363802 0.006019
vt 0.375260 0.695833
vt 0.122910 0.208923
vt 0.001302 0.651389
vt 0.217412 0.208923
vt 0.001302 0.006019
vt 0.377344 0.695833
vt 0.375260 0.974537
vt 0.001302 0.651389
vt 0.363802 0.651389
vt 0.363802 0.006019
vt 0.001302 0.006019
vt 0.001302 0.651389
vt 0.361719 0.651389
vt 0.363802 0.006019
vt 0.001302 0.004167
vt 0.001302 0.651389
vt 0.363802 0.651389
vt 0.363802 0.006019
vt 0.361719 0.651389
vt 0.001302 0.651389
vt 0.363802 0.006019
vt 0.001302 0.006019
vt 0.001302 0.651389
vt 0.363802 0.651389
vt 0.363802 0.006019
vt 0.001302 0.006019
vt 0.003385 0.651389
vt 0.363802 0.651389
vt 0.363802 0.006019
vt 0.001302 0.006019
vt 0.374740 0.662500
vt 0.650260 0.990278
vt 0.003385 0.006019
vt 0.363802 0.006019
vt 0.276302 0.669907
vt 0.007552 0.985648
vt 0.374740 0.990278
vt 0.650260 0.662500
vt 0.276302 0.989352
vt 0.361719 0.651389
vt 0.003385 0.651389
vt 0.007552 0.666204
vt 0.363802 0.651389
vt 0.001302 0.006019
vt 0.363802 0.006019
vt 0.374740 0.662500
vt 0.374740 0.990278
vt 0.001302 0.006019
vt 0.363802 0.006019
vt 0.928906 0.978241
vt 0.928906 0.658796
vt 0.374740 0.990278
vt 0.374740 0.662500
vt 0.928906 0.658796
vt 0.361719 0.651389
vt 0.003385 0.651389
vt 0.928906 0.978241
vt 0.361719 0.651389
vt 0.001302 0.651389
vt 0.001302 0.006019
vt 0.363802 0.006019
vt 0.651823 0.662500
vt 0.020052 0.662500
vt 0.001302 0.006019
vt 0.363802 0.006019
vt 0.383073 0.985648
vt 0.276302 0.989352
vt 0.651823 0.990278
vt 0.020052 0.990278
vt 0.383073 0.666204
vt 0.361719 0.651389
vt 0.003385 0.651389
vt 0.276302 0.669907
vt 0.363802 0.651389
vt 0.001302 0.651389
vt 0.001302 0.006019
vt 0.363802 0.006019
vt 0.374740 0.662500
vt 0.020052 0.662500
vt 0.001302 0.006019
vt 0.363802 0.006019
vt 0.383073 0.989352
vt 0.383073 0.669907
vt 0.374740 0.990278
vt 0.020052 0.990278
vt 0.383073 0.669907
vt 0.361719 0.651389
vt 0.001302 0.651389
vt 0.383073 0.989352
vt 0.363802 0.651389
vt 0.001302 0.006019
vt 0.003385 0.651389
vt 0.374740 0.662500
vt 0.641406 0.990278
vt 0.001302 0.006019
vt 0.363802 0.006019
vt 0.651823 0.989352
vt 0.551302 0.993056
vt 0.374740 0.990278
vt 0.641406 0.662500
vt 0.651823 0.669907
vt 0.363802 0.651389
vt 0.361719 0.006019
vt 0.551302 0.673611
vt 0.363802 0.651389
vt 0.001302 0.651389
vt 0.001302 0.006019
vt 0.363802 0.004167
vt 0.644010 0.990278
vt 0.020052 0.990278
vt 0.926823 0.673611
vt 0.361719 0.651389
vt 0.001302 0.651389
vt 0.651823 0.989352
vt 0.644010 0.662500
vt 0.020052 0.662500
vt 0.364323 -0.000463
vt 0.363802 0.006019
vt 0.926823 0.993056
vt 0.651823 0.669907
vt 0.363802 0.651389
vt 0.001302 0.651389
vt 0.001302 0.006019
vt 0.363802 0.006019
vt 0.652344 0.662500
vt 0.374740 0.990278
vt 0.003385 0.004167
vt 0.363802 0.006019
vt 0.380990 0.989352
vt 0.276302 0.989352
vt 0.652344 0.990278
vt 0.374740 0.662500
vt 0.365885 0.651389
vt 0.380990 0.669907
vt 0.276302 0.669907
vt 0.003385 0.651389
vt 0.363802 0.651389
vt 0.001302 0.651389
vt 0.001302 0.006019
vt 0.363802 0.006019
vt 0.007552 0.974537
vt 0.360156 0.006019
vt 0.000260 0.651389
vt 0.007552 0.695833
vt 0.122910 0.185297
vt 0.001302 0.006019
vt 0.363802 0.006019
vt 0.363802 0.651389
vt 0.001302 0.651389
vt 0.001302 0.006019
vt 0.361719 0.006019
vt 0.363802 0.651389
vt 0.001302 0.651389
vt 0.001302 0.006019
vt 0.363802 0.006019
vt 0.363802 0.651389
vt 0.001302 0.651389
vt 0.001302 0.006019
vt 0.361719 0.651389
vt 0.001302 0.651389
vt 0.001302 0.006019
vt 0.363802 0.006019
vt 0.363802 0.651389
vt 0.001302 0.651389
vt 0.003385 0.006019
vt 0.363802 0.006019
vt 0.361719 0.651389
vt 0.001302 0.651389
vt 0.001302 0.006019
vt 0.001302 0.651389
vt 0.217412 0.185297
vt 0.007552 0.695833
vt 0.007552 0.974537
vt 0.363802 0.006019
vt 0.003385 0.651389
vt 0.363802 0.651389
vt 0.361719 0.006019
vt 0.001302 0.006019
vt 0.001302 0.651389
vt 0.363802 0.651389
vt 0.363802 0.006019
vt 0.001302 0.006019
vt 0.001302 0.651389
vt 0.363802 0.651389
vt 0.363802 0.006019
vt 0.003385 0.006019
vt 0.001302 0.651389
vt 0.363802 0.651389
vt 0.363802 0.006019
vt 0.001302 0.006019
vt 0.001302 0.651389
vt 0.363802 0.651389
vt 0.363802 0.006019
vt 0.001302 0.006019
vt -0.002344 -0.000463
vt 0.363802 0.651389
vt 0.363802 0.006019
vt 0.001302 0.006019
vt 0.003385 0.651389
vt 0.363802 0.651389
vt -0.000260 0.006019
vt 0.217412 0.232548
vt 0.001302 0.651389
vt 0.375260 0.974537
vt 0.007552 0.974537
vt 0.375260 0.695833
vt 0.363802 0.006019
vt 0.363802 0.651389
vt 0.007552 0.695833
vt 0.122910 0.232548
vt 0.003385 0.006019
vt 0.003385 0.651389
vt 0.363802 0.651389
vt 0.001302 0.651389
vt 0.001302 0.006019
vt 0.363802 0.006019
vt 0.363802 0.651389
vt 0.001302 0.651389
vt 0.003385 0.006019
vt 0.363802 0.651389
vt 0.361719 0.006019
vt 0.003385 0.006019
vt 0.361719 0.006019
vt 0.363802 0.651389
vt 0.001302 0.651389
vt 0.003385 0.006019
vt 0.361719 0.006019
vt 0.363802 0.651389
vt 0.001302 0.651389
vt 0.003385 0.006019
vt 0.361719 0.006019
vt 0.363802 0.651389
vt 0.001302 0.651389
vt 0.361719 0.006019
vt 0.003385 0.006019
vt 0.001302 0.651389
vt 0.363802 0.651389
vt 0.361719 0.006019
vt 0.003385 0.006019
vt 0.001302 0.651389
vt 0.363802 0.651389
vt 0.361719 0.006019
vt 0.003385 0.006019
vt 0.001302 0.651389
vt 0.363802 0.651389
vt 0.361719 0.006019
vt 0.001302 0.006019
vt 0.001302 0.651389
vt 0.003385 0.006019
vt 0.363802 0.006019
vt 0.361719 0.651389
vt 0.001302 0.651389
vt 0.363802 0.651389
vt 0.361719 0.006019
vt 0.001302 0.006019
vt 0.001302 0.651389
vt 0.363802 0.651389
vt 0.365885 0.006019
vt 0.003385 0.006019
vt 0.001302 0.651389
vt 0.363802 0.651389
s 0
usemtl Floor.001
f 150/382/49 143/356/49 71/131/49 72/134/49
f 134/326/50 132/320/50 69/125/50 70/128/50
f 175/469/51 140/344/51 68/122/51 159/412/51
f 140/345/52 138/340/52 67/119/52 68/123/52
f 161/417/53 160/415/53 65/113/53 66/116/53
f 133/322/52 135/330/52 79/161/52 96/205/52
f 130/312/52 128/308/52 80/163/52 95/201/52
f 125/297/52 123/293/52 81/165/52 94/197/52
f 120/281/52 118/277/52 82/167/52 93/193/52
f 110/250/52 108/246/52 83/169/52 92/189/52
f 115/265/52 113/261/52 84/171/52 91/185/52
f 174/465/51 133/323/51 96/206/51 163/422/51
f 173/461/51 130/313/51 95/202/51 164/426/51
f 172/457/51 125/298/51 94/198/51 165/430/51
f 171/453/51 120/282/51 93/194/51 166/433/51
f 169/445/51 110/251/51 92/190/51 167/437/51
f 170/449/51 115/266/51 91/186/51 168/441/51
f 137/336/50 139/342/50 85/173/50 78/157/50
f 112/257/50 114/263/50 86/175/50 77/153/50
f 107/242/50 109/248/50 87/177/50 76/149/50
f 117/273/50 119/279/50 88/179/50 75/145/50
f 122/289/50 124/295/50 89/181/50 74/141/50
f 127/304/50 129/310/50 90/183/50 73/137/50
f 153/388/51 116/269/51 106/238/51 149/376/51
f 152/385/51 111/254/51 105/234/51 148/372/51
f 154/392/51 121/285/51 104/231/51 147/369/51
f 155/396/51 126/301/51 103/227/51 146/365/51
f 156/400/51 131/316/51 102/223/51 145/361/51
f 157/404/51 136/332/51 101/219/51 144/357/51
f 142/352/53 151/383/53 100/217/53 97/209/53
f 158/408/51 141/348/51 99/214/51 150/380/51
f 159/413/49 162/421/49 98/213/49 99/215/49
f 147/371/51 104/233/51 111/256/51 152/387/51
f 77/154/50 86/176/50 109/249/50 107/243/50
f 166/434/51 93/195/51 110/252/51 169/446/51
f 93/196/52 82/168/52 108/247/52 110/253/52
f 148/373/51 105/235/51 116/270/51 153/389/51
f 78/158/50 85/174/50 114/264/50 112/258/50
f 167/438/51 92/191/51 115/267/51 170/450/51
f 92/192/52 83/170/52 113/262/52 115/268/52
f 146/366/51 103/228/51 121/286/51 154/393/51
f 76/150/50 87/178/50 119/280/50 117/274/50
f 165/432/51 94/199/51 120/283/51 171/454/51
f 94/200/52 81/166/52 118/278/52 120/284/52
f 145/362/51 102/224/51 126/303/51 155/397/51
f 75/146/50 88/180/50 124/296/50 122/290/50
f 164/427/51 95/203/51 125/299/51 172/458/51
f 95/204/52 80/164/52 123/294/52 125/300/52
f 144/358/51 101/220/51 131/317/51 156/401/51
f 74/142/50 89/182/50 129/311/50 127/305/50
f 163/423/51 96/207/51 130/314/51 173/462/51
f 96/208/52 79/162/52 128/309/52 130/315/52
f 142/353/51 97/210/51 136/333/51 157/405/51
f 161/418/51 66/117/51 133/324/51 174/466/51
f 66/118/52 65/114/52 135/331/52 133/325/52
f 73/138/50 90/184/50 132/321/50 134/327/50
f 149/377/51 106/239/51 141/349/51 158/409/51
f 72/135/50 71/132/50 139/343/50 137/337/50
f 91/187/52 84/172/52 138/341/52 140/346/52
f 168/442/51 91/188/51 140/347/51 175/470/51
f 78/159/51 149/378/51 158/410/51 137/338/51
f 70/129/51 142/354/51 157/406/51 134/328/51
f 73/139/51 144/359/51 156/402/51 127/306/51
f 74/143/51 145/363/51 155/398/51 122/291/51
f 75/147/51 146/367/51 154/394/51 117/275/51
f 77/155/51 148/374/51 153/390/51 112/259/51
f 76/151/51 147/370/51 152/386/51 107/244/51
f 137/339/51 158/411/51 150/381/51 72/136/51
f 70/130/53 69/126/53 151/384/53 142/355/53
f 134/329/51 157/407/51 144/360/51 73/140/51
f 127/307/51 156/403/51 145/364/51 74/144/51
f 122/292/51 155/399/51 146/368/51 75/148/51
f 117/276/51 154/395/51 147/371/51 76/152/51
f 107/245/51 152/387/51 148/375/51 77/156/51
f 112/260/51 153/391/51 149/379/51 78/160/51
f 99/215/49 98/213/49 143/356/49 150/382/49
f 106/240/51 168/443/51 175/471/51 141/350/51
f 97/211/51 161/419/51 174/467/51 136/334/51
f 101/221/51 163/424/51 173/463/51 131/318/51
f 102/225/51 164/428/51 172/459/51 126/302/51
f 103/229/51 165/431/51 171/455/51 121/287/51
f 105/236/51 167/439/51 170/451/51 116/271/51
f 104/232/51 166/435/51 169/447/51 111/255/51
f 68/124/49 67/120/49 162/421/49 159/413/49
f 116/272/51 170/452/51 168/444/51 106/241/51
f 111/256/51 169/448/51 167/440/51 105/237/51
f 121/288/51 171/456/51 166/436/51 104/233/51
f 126/303/51 172/460/51 165/432/51 103/230/51
f 131/319/51 173/464/51 164/429/51 102/226/51
f 136/335/51 174/468/51 163/425/51 101/222/51
f 97/212/53 100/218/53 160/416/53 161/420/53
f 141/351/51 175/472/51 159/414/51 99/216/51
f 67/121/54 65/115/54 69/127/54 71/133/54
